<svg height='100px' width='100px'  fill="#000000" xmlns="http://www.w3.org/2000/svg" xmlns:xlink="http://www.w3.org/1999/xlink" version="1.1" x="0px" y="0px" viewBox="0 0 96 96" enable-background="new 0 0 96 96" xml:space="preserve"><g><path d="M45.926,79.461l-0.856-0.056l-1.616,8.334l1.079,0.096c2.916,0.255,5.87,0.187,8.788-0.201l0.759-0.101l0.93-8.764   l-1.284,0.232C51.145,79.474,48.522,79.628,45.926,79.461z"></path><path d="M36.709,77.453l-0.831-0.316l-3.753,7.6l0.98,0.391c2.455,0.982,5.018,1.72,7.612,2.196l0.952,0.176l1.609-8.311   l-0.973-0.176C40.384,78.662,38.499,78.138,36.709,77.453z"></path><path d="M27.522,71.997c-0.433-0.366-0.858-0.746-1.272-1.141l-0.706-0.675l-5.837,6.132l0.703,0.673   c0.438,0.42,0.892,0.821,1.349,1.219l0.703,0.613l5.852-6.154L27.522,71.997z"></path><path d="M33.397,75.959c-1.033-0.542-2.028-1.134-2.954-1.754L29.76,73.75l-5.886,6.187l0.914,0.652   c1.518,1.084,3.139,2.074,4.821,2.941l0.883,0.457l3.749-7.584L33.397,75.959z"></path><path d="M36.111,18.77c8.459-3.422,17.967-3.04,26.087,1.048l0.486,0.245l8.083-5.017l-1.311-0.833   C59.137,7.651,46.066,6.2,34.489,10.332l-0.749,0.267l1.214,8.639L36.111,18.77z M67.07,15.045l-4.487,2.786   c-8.14-3.932-17.533-4.398-26.042-1.315l-0.646-4.605C46.222,8.47,57.706,9.635,67.07,15.045z"></path><path d="M77.851,58.175c-1.474,4.344-3.825,8.235-6.991,11.563c-0.211,0.22-0.428,0.431-0.644,0.639l-0.595,0.574l2.025,9.357   l1.229-0.978c1.496-1.191,2.883-2.454,4.116-3.754c2.419-2.541,4.497-5.396,6.172-8.486l0.228-0.419l-4.727-10.894L77.851,58.175z"></path><path d="M87.962,46.245c-0.019-0.417-0.044-0.834-0.074-1.251l-0.048-0.655l-8.951-2.898l0.248,1.571   c0.336,2.121,0.457,4.305,0.355,6.462l-0.01,0.226l5.734,13.22l0.8-2.443C87.518,55.878,88.172,51.092,87.962,46.245z"></path><path d="M66.904,22.742c1.037,0.774,1.965,1.556,2.841,2.391c3.595,3.417,6.263,7.517,7.933,12.185l0.161,0.453l9.561,3.096   l-0.374-1.668c-1.732-7.745-5.689-14.729-11.441-20.202c-0.517-0.494-1.047-0.967-1.583-1.427l-0.542-0.464l-7.699,4.779   L66.904,22.742z"></path><path d="M65.691,74.102c-2.557,1.73-5.319,3.067-8.211,3.974l-0.611,0.191l-0.946,8.953l1.339-0.316   c3.82-0.9,7.498-2.374,10.932-4.375l0.613-0.357l-1.92-8.879L65.691,74.102z"></path><path d="M16.494,49.355c-0.376-8.654,2.691-16.861,8.64-23.115c1.872-1.967,3.99-3.685,6.295-5.106l0.544-0.335l-1.255-8.926   l-1.225,0.637c-3.924,2.043-7.455,4.7-10.492,7.896c-7.545,7.929-11.438,18.339-10.962,29.31c0.168,3.883,0.893,7.707,2.155,11.365   l0.521,1.519l6.668-7.004l-0.119-0.512C16.837,53.208,16.576,51.28,16.494,49.355z M11.541,58.901   c-0.895-3.008-1.416-6.119-1.554-9.27C9.535,39.194,13.238,29.293,20.415,21.75c2.569-2.704,5.512-5.001,8.759-6.845l0.69,4.911   c-2.238,1.439-4.302,3.145-6.145,5.08c-6.316,6.641-9.573,15.357-9.176,24.544c0.082,1.867,0.319,3.737,0.707,5.566L11.541,58.901z   "></path></g></svg>