<?xml version="1.0" encoding="utf-8"?>
<!-- Generator: Adobe Illustrator 23.0.4, SVG Export Plug-In . SVG Version: 6.00 Build 0)  -->
<svg version="1.1" id="Layer_1" xmlns="http://www.w3.org/2000/svg" xmlns:xlink="http://www.w3.org/1999/xlink" x="0px" y="0px"
	 viewBox="0 0 100 100" style="enable-background:new 0 0 100 100;" xml:space="preserve">
<style type="text/css">
	.st0{fill:#00766C;}
</style>
<path class="st0" d="M82.4,63.2L62.9,47.6l-3.8-24.7c-0.2-1.2-1.2-2.1-2.4-2.1H43.3c-1.2,0-2.2,0.9-2.4,2.1l-3.8,24.7L17.6,63.2
	c-0.9,0.7-1.2,2.1-0.6,3.1l6.7,11.6c0.6,1,1.9,1.5,3,1l23.3-9L73.3,79c1.1,0.4,2.4,0,3-1L83,66.4C83.5,65.3,83.3,64,82.4,63.2z
	 M50,65.1c-5.5,0-10-4.5-10-10s4.5-10,10-10s10,4.5,10,10S55.5,65.1,50,65.1z"/>
<circle class="st0" cx="50" cy="55" r="6.3"/>
</svg>
